<svg width="128" height="128" viewBox="0 0 128 128" fill="none" xmlns="http://www.w3.org/2000/svg">
  <rect width="128" height="128" rx="24" fill="#5E6AD2"/>
  <path d="M25.5685 78.7492C25.2836 77.5325 26.7311 76.7662 27.6149 77.65L62.5078 112.543C63.3916 113.427 62.6253 114.874 61.4086 114.59C15.1561 101.728 10.7568 97.8154 15.8138 72.5928L25.5685 78.7492Z" fill="white"/>
  <path d="M95.8705 106.893C91.0854 111.678 83.1821 111.323 79.4857 106.893L32.6934 54.5028C28.9971 50.0733 28.6418 42.17 33.4269 37.385L36.2727 34.5392C41.0578 29.7541 48.9612 30.109 52.6575 34.5392L99.4499 86.9296C103.146 91.3594 103.501 99.2628 98.716 104.048L95.8705 106.893Z" fill="white"/>
  <path d="M52.538 26.3295C61.3793 24.8339 70.6133 28.3032 77.108 35.0121L82.3144 40.2185L64.1971 58.3358L40.6808 81.8521L20.8536 62.0249L26.06 56.8185C32.5546 50.3238 41.1973 46.8549 49.6941 48.1036L52.538 26.3295Z" fill="white"/>
</svg>
